<svg t="1590674844273" class="icon" viewBox="0 0 1024 1024" version="1.1" xmlns="http://www.w3.org/2000/svg" p-id="2621" width="128" height="128"><path d="M512 1024a512 512 0 0 1-512-512 512 512 0 0 1 512-512 512 512 0 0 1 512 512 512 512 0 0 1-512 512zM512 48.786286C256.804571 48.786286 48.786286 256.731429 48.786286 512c0 255.195429 208.018286 463.213714 463.213714 463.213714 255.195429 0 463.213714-208.018286 463.213714-463.213714C975.213714 256.804571 767.268571 48.786286 512 48.786286zM549.376 512l198.290286-198.290286c9.801143-9.728 9.801143-26.038857 0-37.376l-1.609143-1.609143a25.526857 25.526857 0 0 0-35.766857 0L512 474.624 313.709714 276.333714a25.526857 25.526857 0 0 0-35.766857 0l-1.609143 1.609143c-9.801143 9.728-9.801143 26.038857 0 37.376L474.550857 512l-198.217143 198.290286c-9.801143 9.728-9.801143 26.038857 0 37.376l1.609143 1.609143a25.526857 25.526857 0 0 0 35.766857 0L512 549.376l198.290286 198.290286a25.526857 25.526857 0 0 0 35.766857 0l1.609143-1.609143c9.801143-9.728 9.801143-26.038857 0-37.376L549.449143 512z" fill="#999999" p-id="2622"></path></svg>